<mxfile host="app.diagrams.net" modified="2022-05-19T05:10:32.569Z" agent="5.0 (Macintosh; Intel Mac OS X 10_15_7) AppleWebKit/537.36 (KHTML, like Gecko) Chrome/101.0.4951.64 Safari/537.36" etag="MJQbPq83ES7-IAJVMWHB" version="18.0.7" type="github" pages="2">
  <diagram id="C5RBs43oDa-KdzZeNtuy" name="总体流程">
    <mxGraphModel dx="1186" dy="654" grid="1" gridSize="10" guides="1" tooltips="1" connect="1" arrows="1" fold="1" page="1" pageScale="1" pageWidth="827" pageHeight="1169" math="0" shadow="0">
      <root>
        <mxCell id="WIyWlLk6GJQsqaUBKTNV-0" />
        <mxCell id="WIyWlLk6GJQsqaUBKTNV-1" parent="WIyWlLk6GJQsqaUBKTNV-0" />
        <mxCell id="3eUvhKsab00mlSJaE81z-7" style="edgeStyle=orthogonalEdgeStyle;rounded=0;orthogonalLoop=1;jettySize=auto;html=1;entryX=0.5;entryY=0;entryDx=0;entryDy=0;" parent="WIyWlLk6GJQsqaUBKTNV-1" target="C-KlC-YwMYe3Bj45QQ63-2" edge="1">
          <mxGeometry relative="1" as="geometry">
            <mxPoint x="550" y="310" as="sourcePoint" />
          </mxGeometry>
        </mxCell>
        <mxCell id="C-KlC-YwMYe3Bj45QQ63-0" value="费用导入。录入" style="rounded=0;whiteSpace=wrap;html=1;" parent="WIyWlLk6GJQsqaUBKTNV-1" vertex="1">
          <mxGeometry x="500" y="260" width="100" height="50" as="geometry" />
        </mxCell>
        <mxCell id="C-KlC-YwMYe3Bj45QQ63-5" style="edgeStyle=orthogonalEdgeStyle;rounded=0;orthogonalLoop=1;jettySize=auto;html=1;entryX=0;entryY=0.5;entryDx=0;entryDy=0;exitX=0.5;exitY=1;exitDx=0;exitDy=0;" parent="WIyWlLk6GJQsqaUBKTNV-1" source="Wzt0SxZEacwmQOYDc9ry-6" target="C-KlC-YwMYe3Bj45QQ63-3" edge="1">
          <mxGeometry relative="1" as="geometry">
            <Array as="points">
              <mxPoint x="330" y="485" />
            </Array>
            <mxPoint x="384" y="360.5" as="sourcePoint" />
          </mxGeometry>
        </mxCell>
        <mxCell id="C-KlC-YwMYe3Bj45QQ63-7" style="edgeStyle=orthogonalEdgeStyle;rounded=0;orthogonalLoop=1;jettySize=auto;html=1;entryX=0.5;entryY=0;entryDx=0;entryDy=0;" parent="WIyWlLk6GJQsqaUBKTNV-1" source="C-KlC-YwMYe3Bj45QQ63-2" target="C-KlC-YwMYe3Bj45QQ63-3" edge="1">
          <mxGeometry relative="1" as="geometry" />
        </mxCell>
        <mxCell id="C-KlC-YwMYe3Bj45QQ63-2" value="费用分摊" style="rounded=0;whiteSpace=wrap;html=1;" parent="WIyWlLk6GJQsqaUBKTNV-1" vertex="1">
          <mxGeometry x="500" y="350" width="100" height="50" as="geometry" />
        </mxCell>
        <mxCell id="C-KlC-YwMYe3Bj45QQ63-8" style="edgeStyle=orthogonalEdgeStyle;rounded=0;orthogonalLoop=1;jettySize=auto;html=1;entryX=0.5;entryY=0;entryDx=0;entryDy=0;" parent="WIyWlLk6GJQsqaUBKTNV-1" source="C-KlC-YwMYe3Bj45QQ63-3" target="C-KlC-YwMYe3Bj45QQ63-4" edge="1">
          <mxGeometry relative="1" as="geometry" />
        </mxCell>
        <mxCell id="C-KlC-YwMYe3Bj45QQ63-3" value="费用归集" style="rounded=0;whiteSpace=wrap;html=1;" parent="WIyWlLk6GJQsqaUBKTNV-1" vertex="1">
          <mxGeometry x="500" y="460" width="100" height="50" as="geometry" />
        </mxCell>
        <mxCell id="pQhmQ7CQRKjNzpdIeHt2-1" style="edgeStyle=orthogonalEdgeStyle;rounded=0;orthogonalLoop=1;jettySize=auto;html=1;entryX=0.5;entryY=0;entryDx=0;entryDy=0;" parent="WIyWlLk6GJQsqaUBKTNV-1" source="C-KlC-YwMYe3Bj45QQ63-4" target="pQhmQ7CQRKjNzpdIeHt2-0" edge="1">
          <mxGeometry relative="1" as="geometry" />
        </mxCell>
        <mxCell id="C-KlC-YwMYe3Bj45QQ63-4" value="月度台帐" style="rounded=0;whiteSpace=wrap;html=1;" parent="WIyWlLk6GJQsqaUBKTNV-1" vertex="1">
          <mxGeometry x="500" y="550" width="100" height="50" as="geometry" />
        </mxCell>
        <mxCell id="C-KlC-YwMYe3Bj45QQ63-9" value="项目负责人" style="text;html=1;strokeColor=none;fillColor=none;align=center;verticalAlign=middle;whiteSpace=wrap;rounded=0;fontStyle=1;fontSize=14;" parent="WIyWlLk6GJQsqaUBKTNV-1" vertex="1">
          <mxGeometry x="290" y="80" width="80" height="30" as="geometry" />
        </mxCell>
        <mxCell id="C-KlC-YwMYe3Bj45QQ63-10" value="财务人员" style="text;html=1;strokeColor=none;fillColor=none;align=center;verticalAlign=middle;whiteSpace=wrap;rounded=0;fontStyle=1;fontSize=14;" parent="WIyWlLk6GJQsqaUBKTNV-1" vertex="1">
          <mxGeometry x="500" y="80" width="80" height="30" as="geometry" />
        </mxCell>
        <mxCell id="C-KlC-YwMYe3Bj45QQ63-11" value="项目成员" style="text;html=1;strokeColor=none;fillColor=none;align=center;verticalAlign=middle;whiteSpace=wrap;rounded=0;fontStyle=1;fontSize=14;" parent="WIyWlLk6GJQsqaUBKTNV-1" vertex="1">
          <mxGeometry x="20" y="80" width="80" height="30" as="geometry" />
        </mxCell>
        <mxCell id="a2dMxt3kqsDvFnWidYsM-0" value="HR人员" style="text;html=1;strokeColor=none;fillColor=none;align=center;verticalAlign=middle;whiteSpace=wrap;rounded=0;fontStyle=1;fontSize=14;" parent="WIyWlLk6GJQsqaUBKTNV-1" vertex="1">
          <mxGeometry x="145" y="80" width="90" height="30" as="geometry" />
        </mxCell>
        <mxCell id="cmwxCJccYiHBZsyU3Xxz-0" style="edgeStyle=orthogonalEdgeStyle;rounded=0;orthogonalLoop=1;jettySize=auto;html=1;entryX=0;entryY=0.6;entryDx=0;entryDy=0;entryPerimeter=0;exitX=0.433;exitY=1;exitDx=0;exitDy=0;exitPerimeter=0;" parent="WIyWlLk6GJQsqaUBKTNV-1" source="Wzt0SxZEacwmQOYDc9ry-6" target="C-KlC-YwMYe3Bj45QQ63-2" edge="1">
          <mxGeometry relative="1" as="geometry">
            <Array as="points">
              <mxPoint x="324" y="380" />
            </Array>
            <mxPoint x="384" y="360" as="sourcePoint" />
          </mxGeometry>
        </mxCell>
        <mxCell id="pQhmQ7CQRKjNzpdIeHt2-0" value="项目报表" style="rounded=0;whiteSpace=wrap;html=1;" parent="WIyWlLk6GJQsqaUBKTNV-1" vertex="1">
          <mxGeometry x="500" y="640" width="100" height="50" as="geometry" />
        </mxCell>
        <mxCell id="Wzt0SxZEacwmQOYDc9ry-8" style="edgeStyle=orthogonalEdgeStyle;rounded=0;orthogonalLoop=1;jettySize=auto;html=1;entryX=0;entryY=0.5;entryDx=0;entryDy=0;" edge="1" parent="WIyWlLk6GJQsqaUBKTNV-1" source="Wzt0SxZEacwmQOYDc9ry-1" target="Wzt0SxZEacwmQOYDc9ry-6">
          <mxGeometry relative="1" as="geometry" />
        </mxCell>
        <mxCell id="Wzt0SxZEacwmQOYDc9ry-1" value="复核工时" style="rounded=0;whiteSpace=wrap;html=1;" vertex="1" parent="WIyWlLk6GJQsqaUBKTNV-1">
          <mxGeometry x="140" y="130" width="100" height="50" as="geometry" />
        </mxCell>
        <mxCell id="Wzt0SxZEacwmQOYDc9ry-7" style="edgeStyle=orthogonalEdgeStyle;rounded=0;orthogonalLoop=1;jettySize=auto;html=1;entryX=0;entryY=0.5;entryDx=0;entryDy=0;" edge="1" parent="WIyWlLk6GJQsqaUBKTNV-1" source="Wzt0SxZEacwmQOYDc9ry-2" target="Wzt0SxZEacwmQOYDc9ry-1">
          <mxGeometry relative="1" as="geometry" />
        </mxCell>
        <mxCell id="Wzt0SxZEacwmQOYDc9ry-2" value="个人日报" style="rounded=0;whiteSpace=wrap;html=1;" vertex="1" parent="WIyWlLk6GJQsqaUBKTNV-1">
          <mxGeometry x="10" y="130" width="90" height="50" as="geometry" />
        </mxCell>
        <mxCell id="Wzt0SxZEacwmQOYDc9ry-4" value="日报：&amp;nbsp;&lt;br&gt;&amp;nbsp; &amp;nbsp; &amp;nbsp;工时，内容，问题" style="text;html=1;strokeColor=none;fillColor=none;align=left;verticalAlign=middle;whiteSpace=wrap;rounded=0;" vertex="1" parent="WIyWlLk6GJQsqaUBKTNV-1">
          <mxGeometry x="60" y="470" width="200" height="110" as="geometry" />
        </mxCell>
        <mxCell id="Wzt0SxZEacwmQOYDc9ry-6" value="项目月报" style="rounded=0;whiteSpace=wrap;html=1;" vertex="1" parent="WIyWlLk6GJQsqaUBKTNV-1">
          <mxGeometry x="285" y="130" width="90" height="50" as="geometry" />
        </mxCell>
        <mxCell id="Wzt0SxZEacwmQOYDc9ry-11" style="edgeStyle=orthogonalEdgeStyle;rounded=0;orthogonalLoop=1;jettySize=auto;html=1;entryX=1;entryY=0.75;entryDx=0;entryDy=0;" edge="1" parent="WIyWlLk6GJQsqaUBKTNV-1" source="Wzt0SxZEacwmQOYDc9ry-10" target="C-KlC-YwMYe3Bj45QQ63-2">
          <mxGeometry relative="1" as="geometry">
            <Array as="points">
              <mxPoint x="720" y="388" />
              <mxPoint x="635" y="388" />
            </Array>
          </mxGeometry>
        </mxCell>
        <mxCell id="Wzt0SxZEacwmQOYDc9ry-10" value="分摊规则" style="rounded=0;whiteSpace=wrap;html=1;" vertex="1" parent="WIyWlLk6GJQsqaUBKTNV-1">
          <mxGeometry x="670" y="290" width="100" height="50" as="geometry" />
        </mxCell>
      </root>
    </mxGraphModel>
  </diagram>
  <diagram id="tMphi7X7rhxziFKKMX2Q" name="费用分摊归集流程">
    <mxGraphModel dx="1186" dy="654" grid="1" gridSize="10" guides="1" tooltips="1" connect="1" arrows="1" fold="1" page="1" pageScale="1" pageWidth="827" pageHeight="1169" math="0" shadow="0">
      <root>
        <mxCell id="0" />
        <mxCell id="1" parent="0" />
        <mxCell id="uh0wEGTrZ8xJ_i7Rh6oP-10" style="edgeStyle=orthogonalEdgeStyle;rounded=0;orthogonalLoop=1;jettySize=auto;html=1;entryX=0.5;entryY=0;entryDx=0;entryDy=0;" parent="1" source="LJzMgTBrtHC8OmEHoOtT-1" target="ZeHLJR3yMtc-mNUFeWJ1-1" edge="1">
          <mxGeometry relative="1" as="geometry" />
        </mxCell>
        <mxCell id="LJzMgTBrtHC8OmEHoOtT-1" value="" style="ellipse;whiteSpace=wrap;html=1;aspect=fixed;" parent="1" vertex="1">
          <mxGeometry x="350" y="20" width="40" height="40" as="geometry" />
        </mxCell>
        <mxCell id="uh0wEGTrZ8xJ_i7Rh6oP-2" style="edgeStyle=orthogonalEdgeStyle;rounded=0;orthogonalLoop=1;jettySize=auto;html=1;" parent="1" source="LJzMgTBrtHC8OmEHoOtT-2" target="SvkP7Fav64-70BOtND_c-9" edge="1">
          <mxGeometry relative="1" as="geometry" />
        </mxCell>
        <mxCell id="LJzMgTBrtHC8OmEHoOtT-2" value="费用归集" style="rounded=0;whiteSpace=wrap;html=1;" parent="1" vertex="1">
          <mxGeometry x="320" y="470" width="100" height="50" as="geometry" />
        </mxCell>
        <mxCell id="SvkP7Fav64-70BOtND_c-1" style="edgeStyle=orthogonalEdgeStyle;rounded=0;orthogonalLoop=1;jettySize=auto;html=1;entryX=0.5;entryY=0;entryDx=0;entryDy=0;" parent="1" source="LJzMgTBrtHC8OmEHoOtT-3" target="K7MxDzxGBGwwB6n0WOMq-1" edge="1">
          <mxGeometry relative="1" as="geometry">
            <Array as="points">
              <mxPoint x="370" y="270" />
              <mxPoint x="230" y="270" />
            </Array>
          </mxGeometry>
        </mxCell>
        <mxCell id="SvkP7Fav64-70BOtND_c-3" style="edgeStyle=orthogonalEdgeStyle;rounded=0;orthogonalLoop=1;jettySize=auto;html=1;entryX=0.5;entryY=0;entryDx=0;entryDy=0;" parent="1" source="LJzMgTBrtHC8OmEHoOtT-3" target="K7MxDzxGBGwwB6n0WOMq-2" edge="1">
          <mxGeometry relative="1" as="geometry" />
        </mxCell>
        <mxCell id="SvkP7Fav64-70BOtND_c-4" style="edgeStyle=orthogonalEdgeStyle;rounded=0;orthogonalLoop=1;jettySize=auto;html=1;" parent="1" source="LJzMgTBrtHC8OmEHoOtT-3" target="Ky4g3-f08VAKbqfw4vqR-1" edge="1">
          <mxGeometry relative="1" as="geometry">
            <Array as="points">
              <mxPoint x="370" y="270" />
              <mxPoint x="500" y="270" />
            </Array>
          </mxGeometry>
        </mxCell>
        <mxCell id="SvkP7Fav64-70BOtND_c-7" style="edgeStyle=orthogonalEdgeStyle;rounded=0;orthogonalLoop=1;jettySize=auto;html=1;" parent="1" source="LJzMgTBrtHC8OmEHoOtT-3" target="Ky4g3-f08VAKbqfw4vqR-2" edge="1">
          <mxGeometry relative="1" as="geometry">
            <Array as="points">
              <mxPoint x="370" y="270" />
              <mxPoint x="650" y="270" />
            </Array>
          </mxGeometry>
        </mxCell>
        <mxCell id="LJzMgTBrtHC8OmEHoOtT-3" value="查看项目月报" style="rounded=0;whiteSpace=wrap;html=1;" parent="1" vertex="1">
          <mxGeometry x="320" y="180" width="100" height="50" as="geometry" />
        </mxCell>
        <mxCell id="SvkP7Fav64-70BOtND_c-8" style="edgeStyle=orthogonalEdgeStyle;rounded=0;orthogonalLoop=1;jettySize=auto;html=1;" parent="1" source="K7MxDzxGBGwwB6n0WOMq-1" target="LJzMgTBrtHC8OmEHoOtT-2" edge="1">
          <mxGeometry relative="1" as="geometry">
            <Array as="points">
              <mxPoint x="230" y="420" />
              <mxPoint x="370" y="420" />
            </Array>
          </mxGeometry>
        </mxCell>
        <mxCell id="K7MxDzxGBGwwB6n0WOMq-1" value="分摊直接投入" style="rounded=0;whiteSpace=wrap;html=1;" parent="1" vertex="1">
          <mxGeometry x="180" y="310" width="100" height="50" as="geometry" />
        </mxCell>
        <mxCell id="uh0wEGTrZ8xJ_i7Rh6oP-5" style="edgeStyle=orthogonalEdgeStyle;rounded=0;orthogonalLoop=1;jettySize=auto;html=1;entryX=0.5;entryY=0;entryDx=0;entryDy=0;" parent="1" source="K7MxDzxGBGwwB6n0WOMq-2" target="LJzMgTBrtHC8OmEHoOtT-2" edge="1">
          <mxGeometry relative="1" as="geometry" />
        </mxCell>
        <mxCell id="K7MxDzxGBGwwB6n0WOMq-2" value="分摊折旧费" style="rounded=0;whiteSpace=wrap;html=1;" parent="1" vertex="1">
          <mxGeometry x="320" y="310" width="100" height="50" as="geometry" />
        </mxCell>
        <mxCell id="uh0wEGTrZ8xJ_i7Rh6oP-4" style="edgeStyle=orthogonalEdgeStyle;rounded=0;orthogonalLoop=1;jettySize=auto;html=1;entryX=0.5;entryY=0;entryDx=0;entryDy=0;" parent="1" source="Ky4g3-f08VAKbqfw4vqR-1" target="LJzMgTBrtHC8OmEHoOtT-2" edge="1">
          <mxGeometry relative="1" as="geometry">
            <Array as="points">
              <mxPoint x="510" y="420" />
              <mxPoint x="370" y="420" />
            </Array>
          </mxGeometry>
        </mxCell>
        <mxCell id="Ky4g3-f08VAKbqfw4vqR-1" value="分摊无形资产费" style="rounded=0;whiteSpace=wrap;html=1;" parent="1" vertex="1">
          <mxGeometry x="450" y="310" width="100" height="50" as="geometry" />
        </mxCell>
        <mxCell id="uh0wEGTrZ8xJ_i7Rh6oP-8" style="edgeStyle=orthogonalEdgeStyle;rounded=0;orthogonalLoop=1;jettySize=auto;html=1;entryX=0.5;entryY=0;entryDx=0;entryDy=0;" parent="1" source="Ky4g3-f08VAKbqfw4vqR-2" target="LJzMgTBrtHC8OmEHoOtT-2" edge="1">
          <mxGeometry relative="1" as="geometry">
            <Array as="points">
              <mxPoint x="650" y="420" />
              <mxPoint x="370" y="420" />
            </Array>
          </mxGeometry>
        </mxCell>
        <mxCell id="Ky4g3-f08VAKbqfw4vqR-2" value="分摊人工费" style="rounded=0;whiteSpace=wrap;html=1;" parent="1" vertex="1">
          <mxGeometry x="600" y="310" width="100" height="50" as="geometry" />
        </mxCell>
        <mxCell id="SvkP7Fav64-70BOtND_c-2" style="edgeStyle=orthogonalEdgeStyle;rounded=0;orthogonalLoop=1;jettySize=auto;html=1;" parent="1" source="ZeHLJR3yMtc-mNUFeWJ1-1" target="LJzMgTBrtHC8OmEHoOtT-3" edge="1">
          <mxGeometry relative="1" as="geometry" />
        </mxCell>
        <mxCell id="SvkP7Fav64-70BOtND_c-6" style="edgeStyle=orthogonalEdgeStyle;rounded=0;orthogonalLoop=1;jettySize=auto;html=1;entryX=0.5;entryY=0;entryDx=0;entryDy=0;" parent="1" source="ZeHLJR3yMtc-mNUFeWJ1-1" target="7haHlA8hCLBOKprgYql--5" edge="1">
          <mxGeometry relative="1" as="geometry" />
        </mxCell>
        <mxCell id="ZeHLJR3yMtc-mNUFeWJ1-1" value="费用导入" style="rounded=0;whiteSpace=wrap;html=1;" parent="1" vertex="1">
          <mxGeometry x="320" y="100" width="100" height="50" as="geometry" />
        </mxCell>
        <mxCell id="uh0wEGTrZ8xJ_i7Rh6oP-9" style="edgeStyle=orthogonalEdgeStyle;rounded=0;orthogonalLoop=1;jettySize=auto;html=1;entryX=1;entryY=0.5;entryDx=0;entryDy=0;" parent="1" source="7haHlA8hCLBOKprgYql--5" target="LJzMgTBrtHC8OmEHoOtT-2" edge="1">
          <mxGeometry relative="1" as="geometry">
            <Array as="points">
              <mxPoint x="790" y="495" />
            </Array>
          </mxGeometry>
        </mxCell>
        <mxCell id="7haHlA8hCLBOKprgYql--5" value="其他费用" style="rounded=0;whiteSpace=wrap;html=1;" parent="1" vertex="1">
          <mxGeometry x="730" y="310" width="100" height="50" as="geometry" />
        </mxCell>
        <mxCell id="uh0wEGTrZ8xJ_i7Rh6oP-3" style="edgeStyle=orthogonalEdgeStyle;rounded=0;orthogonalLoop=1;jettySize=auto;html=1;entryX=0.5;entryY=0;entryDx=0;entryDy=0;" parent="1" edge="1">
          <mxGeometry relative="1" as="geometry">
            <mxPoint x="370" y="600" as="sourcePoint" />
            <mxPoint x="370" y="650" as="targetPoint" />
          </mxGeometry>
        </mxCell>
        <mxCell id="SvkP7Fav64-70BOtND_c-9" value="月度台帐" style="rounded=0;whiteSpace=wrap;html=1;" parent="1" vertex="1">
          <mxGeometry x="320" y="560" width="100" height="50" as="geometry" />
        </mxCell>
        <mxCell id="uh0wEGTrZ8xJ_i7Rh6oP-6" value="" style="verticalLabelPosition=bottom;verticalAlign=top;html=1;shape=mxgraph.flowchart.or;" parent="1" vertex="1">
          <mxGeometry x="350" y="650" width="40" height="40" as="geometry" />
        </mxCell>
      </root>
    </mxGraphModel>
  </diagram>
</mxfile>
